<?xml version="1.0" encoding="UTF-8" standalone="no"?><svg xmlns="http://www.w3.org/2000/svg" xmlns:xlink="http://www.w3.org/1999/xlink" contentStyleType="text/css" height="170px" preserveAspectRatio="none" style="width:569px;height:170px;background:#FFFFFF;" version="1.1" viewBox="0 0 569 170" width="569px" zoomAndPan="magnify"><defs/><g><!--MD5=[b2f23c4a06b9bc4c947f037f864aea3c]
class Class01--><g id="elem_Class01"><rect fill="#F1F1F1" height="48" id="Class01" rx="2.5" ry="2.5" style="stroke:#181818;stroke-width:0.5;" width="83" x="7" y="7"/><ellipse cx="22" cy="23" fill="#ADD1B2" rx="11" ry="11" style="stroke:#181818;stroke-width:1.0;"/><path d="M24.7656,18.875 Q24.9219,18.6563 25.1094,18.5469 Q25.2969,18.4375 25.5156,18.4375 Q25.8906,18.4375 26.125,18.6953 Q26.3594,18.9531 26.3594,19.5625 L26.3594,21.0156 Q26.3594,21.625 26.125,21.8906 Q25.8906,22.1563 25.5156,22.1563 Q25.1719,22.1563 24.9688,21.9531 Q24.7656,21.7656 24.6563,21.25 Q24.6094,20.8906 24.4219,20.7031 Q24.0938,20.3281 23.4844,20.1094 Q22.875,19.8906 22.25,19.8906 Q21.4844,19.8906 20.8516,20.2188 Q20.2188,20.5469 19.7266,21.2969 Q19.2344,22.0469 19.2344,23.0781 L19.2344,24.1719 Q19.2344,25.4063 20.125,26.2266 Q21.0156,27.0469 22.6094,27.0469 Q23.5469,27.0469 24.2031,26.7969 Q24.5938,26.6406 25.0156,26.2031 Q25.2813,25.9375 25.4297,25.8594 Q25.5781,25.7813 25.7813,25.7813 Q26.1094,25.7813 26.3672,26.0391 Q26.625,26.2969 26.625,26.6406 Q26.625,26.9844 26.2813,27.3906 Q25.7813,27.9688 24.9844,28.2969 Q23.9063,28.75 22.6094,28.75 Q21.0938,28.75 19.8906,28.125 Q18.9063,27.625 18.2188,26.5547 Q17.5313,25.4844 17.5313,24.2031 L17.5313,23.0469 Q17.5313,21.7188 18.1484,20.5703 Q18.7656,19.4219 19.8594,18.8047 Q20.9531,18.1875 22.1875,18.1875 Q22.9219,18.1875 23.5703,18.3516 Q24.2188,18.5156 24.7656,18.875 Z " fill="#000000"/><text fill="#000000" font-family="sans-serif" font-size="14" lengthAdjust="spacing" textLength="51" x="36" y="28.7285">Class01</text><line style="stroke:#181818;stroke-width:0.5;" x1="8" x2="89" y1="39" y2="39"/><line style="stroke:#181818;stroke-width:0.5;" x1="8" x2="89" y1="47" y2="47"/></g><!--MD5=[67b7f66b9c6b27d60ed6d0424460c06c]
class Class02--><g id="elem_Class02"><rect fill="#F1F1F1" height="48" id="Class02" rx="2.5" ry="2.5" style="stroke:#181818;stroke-width:0.5;" width="83" x="7" y="115"/><ellipse cx="22" cy="131" fill="#ADD1B2" rx="11" ry="11" style="stroke:#181818;stroke-width:1.0;"/><path d="M24.7656,126.875 Q24.9219,126.6563 25.1094,126.5469 Q25.2969,126.4375 25.5156,126.4375 Q25.8906,126.4375 26.125,126.6953 Q26.3594,126.9531 26.3594,127.5625 L26.3594,129.0156 Q26.3594,129.625 26.125,129.8906 Q25.8906,130.1563 25.5156,130.1563 Q25.1719,130.1563 24.9688,129.9531 Q24.7656,129.7656 24.6563,129.25 Q24.6094,128.8906 24.4219,128.7031 Q24.0938,128.3281 23.4844,128.1094 Q22.875,127.8906 22.25,127.8906 Q21.4844,127.8906 20.8516,128.2188 Q20.2188,128.5469 19.7266,129.2969 Q19.2344,130.0469 19.2344,131.0781 L19.2344,132.1719 Q19.2344,133.4063 20.125,134.2266 Q21.0156,135.0469 22.6094,135.0469 Q23.5469,135.0469 24.2031,134.7969 Q24.5938,134.6406 25.0156,134.2031 Q25.2813,133.9375 25.4297,133.8594 Q25.5781,133.7813 25.7813,133.7813 Q26.1094,133.7813 26.3672,134.0391 Q26.625,134.2969 26.625,134.6406 Q26.625,134.9844 26.2813,135.3906 Q25.7813,135.9688 24.9844,136.2969 Q23.9063,136.75 22.6094,136.75 Q21.0938,136.75 19.8906,136.125 Q18.9063,135.625 18.2188,134.5547 Q17.5313,133.4844 17.5313,132.2031 L17.5313,131.0469 Q17.5313,129.7188 18.1484,128.5703 Q18.7656,127.4219 19.8594,126.8047 Q20.9531,126.1875 22.1875,126.1875 Q22.9219,126.1875 23.5703,126.3516 Q24.2188,126.5156 24.7656,126.875 Z " fill="#000000"/><text fill="#000000" font-family="sans-serif" font-size="14" lengthAdjust="spacing" textLength="51" x="36" y="136.7285">Class02</text><line style="stroke:#181818;stroke-width:0.5;" x1="8" x2="89" y1="147" y2="147"/><line style="stroke:#181818;stroke-width:0.5;" x1="8" x2="89" y1="155" y2="155"/></g><!--MD5=[e34eefe962fcadefcbf83660cc436420]
class Class03--><g id="elem_Class03"><rect fill="#F1F1F1" height="48" id="Class03" rx="2.5" ry="2.5" style="stroke:#181818;stroke-width:0.5;" width="83" x="125" y="7"/><ellipse cx="140" cy="23" fill="#ADD1B2" rx="11" ry="11" style="stroke:#181818;stroke-width:1.0;"/><path d="M142.7656,18.875 Q142.9219,18.6563 143.1094,18.5469 Q143.2969,18.4375 143.5156,18.4375 Q143.8906,18.4375 144.125,18.6953 Q144.3594,18.9531 144.3594,19.5625 L144.3594,21.0156 Q144.3594,21.625 144.125,21.8906 Q143.8906,22.1563 143.5156,22.1563 Q143.1719,22.1563 142.9688,21.9531 Q142.7656,21.7656 142.6563,21.25 Q142.6094,20.8906 142.4219,20.7031 Q142.0938,20.3281 141.4844,20.1094 Q140.875,19.8906 140.25,19.8906 Q139.4844,19.8906 138.8516,20.2188 Q138.2188,20.5469 137.7266,21.2969 Q137.2344,22.0469 137.2344,23.0781 L137.2344,24.1719 Q137.2344,25.4063 138.125,26.2266 Q139.0156,27.0469 140.6094,27.0469 Q141.5469,27.0469 142.2031,26.7969 Q142.5938,26.6406 143.0156,26.2031 Q143.2813,25.9375 143.4297,25.8594 Q143.5781,25.7813 143.7813,25.7813 Q144.1094,25.7813 144.3672,26.0391 Q144.625,26.2969 144.625,26.6406 Q144.625,26.9844 144.2813,27.3906 Q143.7813,27.9688 142.9844,28.2969 Q141.9063,28.75 140.6094,28.75 Q139.0938,28.75 137.8906,28.125 Q136.9063,27.625 136.2188,26.5547 Q135.5313,25.4844 135.5313,24.2031 L135.5313,23.0469 Q135.5313,21.7188 136.1484,20.5703 Q136.7656,19.4219 137.8594,18.8047 Q138.9531,18.1875 140.1875,18.1875 Q140.9219,18.1875 141.5703,18.3516 Q142.2188,18.5156 142.7656,18.875 Z " fill="#000000"/><text fill="#000000" font-family="sans-serif" font-size="14" lengthAdjust="spacing" textLength="51" x="154" y="28.7285">Class03</text><line style="stroke:#181818;stroke-width:0.5;" x1="126" x2="207" y1="39" y2="39"/><line style="stroke:#181818;stroke-width:0.5;" x1="126" x2="207" y1="47" y2="47"/></g><!--MD5=[d53a23475d458e69a9e37a48405189e2]
class Class04--><g id="elem_Class04"><rect fill="#F1F1F1" height="48" id="Class04" rx="2.5" ry="2.5" style="stroke:#181818;stroke-width:0.5;" width="83" x="125" y="115"/><ellipse cx="140" cy="131" fill="#ADD1B2" rx="11" ry="11" style="stroke:#181818;stroke-width:1.0;"/><path d="M142.7656,126.875 Q142.9219,126.6563 143.1094,126.5469 Q143.2969,126.4375 143.5156,126.4375 Q143.8906,126.4375 144.125,126.6953 Q144.3594,126.9531 144.3594,127.5625 L144.3594,129.0156 Q144.3594,129.625 144.125,129.8906 Q143.8906,130.1563 143.5156,130.1563 Q143.1719,130.1563 142.9688,129.9531 Q142.7656,129.7656 142.6563,129.25 Q142.6094,128.8906 142.4219,128.7031 Q142.0938,128.3281 141.4844,128.1094 Q140.875,127.8906 140.25,127.8906 Q139.4844,127.8906 138.8516,128.2188 Q138.2188,128.5469 137.7266,129.2969 Q137.2344,130.0469 137.2344,131.0781 L137.2344,132.1719 Q137.2344,133.4063 138.125,134.2266 Q139.0156,135.0469 140.6094,135.0469 Q141.5469,135.0469 142.2031,134.7969 Q142.5938,134.6406 143.0156,134.2031 Q143.2813,133.9375 143.4297,133.8594 Q143.5781,133.7813 143.7813,133.7813 Q144.1094,133.7813 144.3672,134.0391 Q144.625,134.2969 144.625,134.6406 Q144.625,134.9844 144.2813,135.3906 Q143.7813,135.9688 142.9844,136.2969 Q141.9063,136.75 140.6094,136.75 Q139.0938,136.75 137.8906,136.125 Q136.9063,135.625 136.2188,134.5547 Q135.5313,133.4844 135.5313,132.2031 L135.5313,131.0469 Q135.5313,129.7188 136.1484,128.5703 Q136.7656,127.4219 137.8594,126.8047 Q138.9531,126.1875 140.1875,126.1875 Q140.9219,126.1875 141.5703,126.3516 Q142.2188,126.5156 142.7656,126.875 Z " fill="#000000"/><text fill="#000000" font-family="sans-serif" font-size="14" lengthAdjust="spacing" textLength="51" x="154" y="136.7285">Class04</text><line style="stroke:#181818;stroke-width:0.5;" x1="126" x2="207" y1="147" y2="147"/><line style="stroke:#181818;stroke-width:0.5;" x1="126" x2="207" y1="155" y2="155"/></g><!--MD5=[21c802bf509ebb275d96eccffaf3e0b6]
class Class05--><g id="elem_Class05"><rect fill="#F1F1F1" height="48" id="Class05" rx="2.5" ry="2.5" style="stroke:#181818;stroke-width:0.5;" width="83" x="243" y="7"/><ellipse cx="258" cy="23" fill="#ADD1B2" rx="11" ry="11" style="stroke:#181818;stroke-width:1.0;"/><path d="M260.7656,18.875 Q260.9219,18.6563 261.1094,18.5469 Q261.2969,18.4375 261.5156,18.4375 Q261.8906,18.4375 262.125,18.6953 Q262.3594,18.9531 262.3594,19.5625 L262.3594,21.0156 Q262.3594,21.625 262.125,21.8906 Q261.8906,22.1563 261.5156,22.1563 Q261.1719,22.1563 260.9688,21.9531 Q260.7656,21.7656 260.6563,21.25 Q260.6094,20.8906 260.4219,20.7031 Q260.0938,20.3281 259.4844,20.1094 Q258.875,19.8906 258.25,19.8906 Q257.4844,19.8906 256.8516,20.2188 Q256.2188,20.5469 255.7266,21.2969 Q255.2344,22.0469 255.2344,23.0781 L255.2344,24.1719 Q255.2344,25.4063 256.125,26.2266 Q257.0156,27.0469 258.6094,27.0469 Q259.5469,27.0469 260.2031,26.7969 Q260.5938,26.6406 261.0156,26.2031 Q261.2813,25.9375 261.4297,25.8594 Q261.5781,25.7813 261.7813,25.7813 Q262.1094,25.7813 262.3672,26.0391 Q262.625,26.2969 262.625,26.6406 Q262.625,26.9844 262.2813,27.3906 Q261.7813,27.9688 260.9844,28.2969 Q259.9063,28.75 258.6094,28.75 Q257.0938,28.75 255.8906,28.125 Q254.9063,27.625 254.2188,26.5547 Q253.5313,25.4844 253.5313,24.2031 L253.5313,23.0469 Q253.5313,21.7188 254.1484,20.5703 Q254.7656,19.4219 255.8594,18.8047 Q256.9531,18.1875 258.1875,18.1875 Q258.9219,18.1875 259.5703,18.3516 Q260.2188,18.5156 260.7656,18.875 Z " fill="#000000"/><text fill="#000000" font-family="sans-serif" font-size="14" lengthAdjust="spacing" textLength="51" x="272" y="28.7285">Class05</text><line style="stroke:#181818;stroke-width:0.5;" x1="244" x2="325" y1="39" y2="39"/><line style="stroke:#181818;stroke-width:0.5;" x1="244" x2="325" y1="47" y2="47"/></g><!--MD5=[247dd373b5711b206209116e093ec52c]
class Class06--><g id="elem_Class06"><rect fill="#F1F1F1" height="48" id="Class06" rx="2.5" ry="2.5" style="stroke:#181818;stroke-width:0.5;" width="83" x="243" y="115"/><ellipse cx="258" cy="131" fill="#ADD1B2" rx="11" ry="11" style="stroke:#181818;stroke-width:1.0;"/><path d="M260.7656,126.875 Q260.9219,126.6563 261.1094,126.5469 Q261.2969,126.4375 261.5156,126.4375 Q261.8906,126.4375 262.125,126.6953 Q262.3594,126.9531 262.3594,127.5625 L262.3594,129.0156 Q262.3594,129.625 262.125,129.8906 Q261.8906,130.1563 261.5156,130.1563 Q261.1719,130.1563 260.9688,129.9531 Q260.7656,129.7656 260.6563,129.25 Q260.6094,128.8906 260.4219,128.7031 Q260.0938,128.3281 259.4844,128.1094 Q258.875,127.8906 258.25,127.8906 Q257.4844,127.8906 256.8516,128.2188 Q256.2188,128.5469 255.7266,129.2969 Q255.2344,130.0469 255.2344,131.0781 L255.2344,132.1719 Q255.2344,133.4063 256.125,134.2266 Q257.0156,135.0469 258.6094,135.0469 Q259.5469,135.0469 260.2031,134.7969 Q260.5938,134.6406 261.0156,134.2031 Q261.2813,133.9375 261.4297,133.8594 Q261.5781,133.7813 261.7813,133.7813 Q262.1094,133.7813 262.3672,134.0391 Q262.625,134.2969 262.625,134.6406 Q262.625,134.9844 262.2813,135.3906 Q261.7813,135.9688 260.9844,136.2969 Q259.9063,136.75 258.6094,136.75 Q257.0938,136.75 255.8906,136.125 Q254.9063,135.625 254.2188,134.5547 Q253.5313,133.4844 253.5313,132.2031 L253.5313,131.0469 Q253.5313,129.7188 254.1484,128.5703 Q254.7656,127.4219 255.8594,126.8047 Q256.9531,126.1875 258.1875,126.1875 Q258.9219,126.1875 259.5703,126.3516 Q260.2188,126.5156 260.7656,126.875 Z " fill="#000000"/><text fill="#000000" font-family="sans-serif" font-size="14" lengthAdjust="spacing" textLength="51" x="272" y="136.7285">Class06</text><line style="stroke:#181818;stroke-width:0.5;" x1="244" x2="325" y1="147" y2="147"/><line style="stroke:#181818;stroke-width:0.5;" x1="244" x2="325" y1="155" y2="155"/></g><!--MD5=[83017deacfdfe1c29bd0eb2a2cc9c723]
class Class07--><g id="elem_Class07"><rect fill="#F1F1F1" height="48" id="Class07" rx="2.5" ry="2.5" style="stroke:#181818;stroke-width:0.5;" width="83" x="361" y="7"/><ellipse cx="376" cy="23" fill="#ADD1B2" rx="11" ry="11" style="stroke:#181818;stroke-width:1.0;"/><path d="M378.7656,18.875 Q378.9219,18.6563 379.1094,18.5469 Q379.2969,18.4375 379.5156,18.4375 Q379.8906,18.4375 380.125,18.6953 Q380.3594,18.9531 380.3594,19.5625 L380.3594,21.0156 Q380.3594,21.625 380.125,21.8906 Q379.8906,22.1563 379.5156,22.1563 Q379.1719,22.1563 378.9688,21.9531 Q378.7656,21.7656 378.6563,21.25 Q378.6094,20.8906 378.4219,20.7031 Q378.0938,20.3281 377.4844,20.1094 Q376.875,19.8906 376.25,19.8906 Q375.4844,19.8906 374.8516,20.2188 Q374.2188,20.5469 373.7266,21.2969 Q373.2344,22.0469 373.2344,23.0781 L373.2344,24.1719 Q373.2344,25.4063 374.125,26.2266 Q375.0156,27.0469 376.6094,27.0469 Q377.5469,27.0469 378.2031,26.7969 Q378.5938,26.6406 379.0156,26.2031 Q379.2813,25.9375 379.4297,25.8594 Q379.5781,25.7813 379.7813,25.7813 Q380.1094,25.7813 380.3672,26.0391 Q380.625,26.2969 380.625,26.6406 Q380.625,26.9844 380.2813,27.3906 Q379.7813,27.9688 378.9844,28.2969 Q377.9063,28.75 376.6094,28.75 Q375.0938,28.75 373.8906,28.125 Q372.9063,27.625 372.2188,26.5547 Q371.5313,25.4844 371.5313,24.2031 L371.5313,23.0469 Q371.5313,21.7188 372.1484,20.5703 Q372.7656,19.4219 373.8594,18.8047 Q374.9531,18.1875 376.1875,18.1875 Q376.9219,18.1875 377.5703,18.3516 Q378.2188,18.5156 378.7656,18.875 Z " fill="#000000"/><text fill="#000000" font-family="sans-serif" font-size="14" lengthAdjust="spacing" textLength="51" x="390" y="28.7285">Class07</text><line style="stroke:#181818;stroke-width:0.5;" x1="362" x2="443" y1="39" y2="39"/><line style="stroke:#181818;stroke-width:0.5;" x1="362" x2="443" y1="47" y2="47"/></g><!--MD5=[0e75c8574cc137f0f93c5ac687b4b98c]
class Class08--><g id="elem_Class08"><rect fill="#F1F1F1" height="48" id="Class08" rx="2.5" ry="2.5" style="stroke:#181818;stroke-width:0.5;" width="83" x="361" y="115"/><ellipse cx="376" cy="131" fill="#ADD1B2" rx="11" ry="11" style="stroke:#181818;stroke-width:1.0;"/><path d="M378.7656,126.875 Q378.9219,126.6563 379.1094,126.5469 Q379.2969,126.4375 379.5156,126.4375 Q379.8906,126.4375 380.125,126.6953 Q380.3594,126.9531 380.3594,127.5625 L380.3594,129.0156 Q380.3594,129.625 380.125,129.8906 Q379.8906,130.1563 379.5156,130.1563 Q379.1719,130.1563 378.9688,129.9531 Q378.7656,129.7656 378.6563,129.25 Q378.6094,128.8906 378.4219,128.7031 Q378.0938,128.3281 377.4844,128.1094 Q376.875,127.8906 376.25,127.8906 Q375.4844,127.8906 374.8516,128.2188 Q374.2188,128.5469 373.7266,129.2969 Q373.2344,130.0469 373.2344,131.0781 L373.2344,132.1719 Q373.2344,133.4063 374.125,134.2266 Q375.0156,135.0469 376.6094,135.0469 Q377.5469,135.0469 378.2031,134.7969 Q378.5938,134.6406 379.0156,134.2031 Q379.2813,133.9375 379.4297,133.8594 Q379.5781,133.7813 379.7813,133.7813 Q380.1094,133.7813 380.3672,134.0391 Q380.625,134.2969 380.625,134.6406 Q380.625,134.9844 380.2813,135.3906 Q379.7813,135.9688 378.9844,136.2969 Q377.9063,136.75 376.6094,136.75 Q375.0938,136.75 373.8906,136.125 Q372.9063,135.625 372.2188,134.5547 Q371.5313,133.4844 371.5313,132.2031 L371.5313,131.0469 Q371.5313,129.7188 372.1484,128.5703 Q372.7656,127.4219 373.8594,126.8047 Q374.9531,126.1875 376.1875,126.1875 Q376.9219,126.1875 377.5703,126.3516 Q378.2188,126.5156 378.7656,126.875 Z " fill="#000000"/><text fill="#000000" font-family="sans-serif" font-size="14" lengthAdjust="spacing" textLength="51" x="390" y="136.7285">Class08</text><line style="stroke:#181818;stroke-width:0.5;" x1="362" x2="443" y1="147" y2="147"/><line style="stroke:#181818;stroke-width:0.5;" x1="362" x2="443" y1="155" y2="155"/></g><!--MD5=[11c0341282256c64706f32de960d439a]
class Class09--><g id="elem_Class09"><rect fill="#F1F1F1" height="48" id="Class09" rx="2.5" ry="2.5" style="stroke:#181818;stroke-width:0.5;" width="83" x="479" y="7"/><ellipse cx="494" cy="23" fill="#ADD1B2" rx="11" ry="11" style="stroke:#181818;stroke-width:1.0;"/><path d="M496.7656,18.875 Q496.9219,18.6563 497.1094,18.5469 Q497.2969,18.4375 497.5156,18.4375 Q497.8906,18.4375 498.125,18.6953 Q498.3594,18.9531 498.3594,19.5625 L498.3594,21.0156 Q498.3594,21.625 498.125,21.8906 Q497.8906,22.1563 497.5156,22.1563 Q497.1719,22.1563 496.9688,21.9531 Q496.7656,21.7656 496.6563,21.25 Q496.6094,20.8906 496.4219,20.7031 Q496.0938,20.3281 495.4844,20.1094 Q494.875,19.8906 494.25,19.8906 Q493.4844,19.8906 492.8516,20.2188 Q492.2188,20.5469 491.7266,21.2969 Q491.2344,22.0469 491.2344,23.0781 L491.2344,24.1719 Q491.2344,25.4063 492.125,26.2266 Q493.0156,27.0469 494.6094,27.0469 Q495.5469,27.0469 496.2031,26.7969 Q496.5938,26.6406 497.0156,26.2031 Q497.2813,25.9375 497.4297,25.8594 Q497.5781,25.7813 497.7813,25.7813 Q498.1094,25.7813 498.3672,26.0391 Q498.625,26.2969 498.625,26.6406 Q498.625,26.9844 498.2813,27.3906 Q497.7813,27.9688 496.9844,28.2969 Q495.9063,28.75 494.6094,28.75 Q493.0938,28.75 491.8906,28.125 Q490.9063,27.625 490.2188,26.5547 Q489.5313,25.4844 489.5313,24.2031 L489.5313,23.0469 Q489.5313,21.7188 490.1484,20.5703 Q490.7656,19.4219 491.8594,18.8047 Q492.9531,18.1875 494.1875,18.1875 Q494.9219,18.1875 495.5703,18.3516 Q496.2188,18.5156 496.7656,18.875 Z " fill="#000000"/><text fill="#000000" font-family="sans-serif" font-size="14" lengthAdjust="spacing" textLength="51" x="508" y="28.7285">Class09</text><line style="stroke:#181818;stroke-width:0.5;" x1="480" x2="561" y1="39" y2="39"/><line style="stroke:#181818;stroke-width:0.5;" x1="480" x2="561" y1="47" y2="47"/></g><!--MD5=[f0780a43e5c0af3c52b439b7f3f3994e]
class Class10--><g id="elem_Class10"><rect fill="#F1F1F1" height="48" id="Class10" rx="2.5" ry="2.5" style="stroke:#181818;stroke-width:0.5;" width="83" x="479" y="115"/><ellipse cx="494" cy="131" fill="#ADD1B2" rx="11" ry="11" style="stroke:#181818;stroke-width:1.0;"/><path d="M496.7656,126.875 Q496.9219,126.6563 497.1094,126.5469 Q497.2969,126.4375 497.5156,126.4375 Q497.8906,126.4375 498.125,126.6953 Q498.3594,126.9531 498.3594,127.5625 L498.3594,129.0156 Q498.3594,129.625 498.125,129.8906 Q497.8906,130.1563 497.5156,130.1563 Q497.1719,130.1563 496.9688,129.9531 Q496.7656,129.7656 496.6563,129.25 Q496.6094,128.8906 496.4219,128.7031 Q496.0938,128.3281 495.4844,128.1094 Q494.875,127.8906 494.25,127.8906 Q493.4844,127.8906 492.8516,128.2188 Q492.2188,128.5469 491.7266,129.2969 Q491.2344,130.0469 491.2344,131.0781 L491.2344,132.1719 Q491.2344,133.4063 492.125,134.2266 Q493.0156,135.0469 494.6094,135.0469 Q495.5469,135.0469 496.2031,134.7969 Q496.5938,134.6406 497.0156,134.2031 Q497.2813,133.9375 497.4297,133.8594 Q497.5781,133.7813 497.7813,133.7813 Q498.1094,133.7813 498.3672,134.0391 Q498.625,134.2969 498.625,134.6406 Q498.625,134.9844 498.2813,135.3906 Q497.7813,135.9688 496.9844,136.2969 Q495.9063,136.75 494.6094,136.75 Q493.0938,136.75 491.8906,136.125 Q490.9063,135.625 490.2188,134.5547 Q489.5313,133.4844 489.5313,132.2031 L489.5313,131.0469 Q489.5313,129.7188 490.1484,128.5703 Q490.7656,127.4219 491.8594,126.8047 Q492.9531,126.1875 494.1875,126.1875 Q494.9219,126.1875 495.5703,126.3516 Q496.2188,126.5156 496.7656,126.875 Z " fill="#000000"/><text fill="#000000" font-family="sans-serif" font-size="14" lengthAdjust="spacing" textLength="51" x="508" y="136.7285">Class10</text><line style="stroke:#181818;stroke-width:0.5;" x1="480" x2="561" y1="147" y2="147"/><line style="stroke:#181818;stroke-width:0.5;" x1="480" x2="561" y1="155" y2="155"/></g><!--MD5=[3ab52052fd7925c5f64fca5d41d6866e]
reverse link Class01 to Class02--><g id="link_Class01_Class02"><path codeLine="1" d="M48.5,75.02 C48.5,88.58 48.5,103.04 48.5,114.68 " fill="none" id="Class01-backto-Class02" style="stroke:#181818;stroke-width:1.0;"/><polygon fill="none" points="41.5,75,48.5,55,55.5,75,41.5,75" style="stroke:#181818;stroke-width:1.0;"/></g><!--MD5=[0815ca07f8d628dc1a46a48ef0cd4c01]
reverse link Class03 to Class04--><g id="link_Class03_Class04"><path codeLine="2" d="M166.5,68.34 C166.5,83.68 166.5,101.1 166.5,114.68 " fill="none" id="Class03-backto-Class04" style="stroke:#181818;stroke-width:1.0;"/><polygon fill="#181818" points="166.5,55,162.5,61,166.5,67,170.5,61,166.5,55" style="stroke:#181818;stroke-width:1.0;"/></g><!--MD5=[07ec844cc9d193d99f69abe09e63aa9e]
reverse link Class05 to Class06--><g id="link_Class05_Class06"><path codeLine="3" d="M284.5,68.34 C284.5,83.68 284.5,101.1 284.5,114.68 " fill="none" id="Class05-backto-Class06" style="stroke:#181818;stroke-width:1.0;"/><polygon fill="none" points="284.5,55,280.5,61,284.5,67,288.5,61,284.5,55" style="stroke:#181818;stroke-width:1.0;"/></g><!--MD5=[cd6c6022d9f7be31b268d5c573778c45]
link Class07 to Class08--><g id="link_Class07_Class08"><path codeLine="4" d="M402.5,55 C402.5,72.66 402.5,96.94 402.5,114.68 " fill="none" id="Class07-Class08" style="stroke:#181818;stroke-width:1.0;stroke-dasharray:7.0,7.0;"/></g><!--MD5=[012abb55b9b004b4a603a60db8edb83a]
link Class09 to Class10--><g id="link_Class09_Class10"><path codeLine="5" d="M520.5,55 C520.5,72.66 520.5,96.94 520.5,114.68 " fill="none" id="Class09-Class10" style="stroke:#181818;stroke-width:1.0;"/></g><!--MD5=[c75b549aa05f82572a27e3d144524df5]
@startuml Diagramma
Class01 <|- - Class02
Class03 *- - Class04
Class05 o- - Class06
Class07 .. Class08
Class09 - - Class10
@enduml

PlantUML version 1.2022.7(Mon Aug 22 20:01:30 MSK 2022)
(GPL source distribution)
Java Runtime: Java(TM) SE Runtime Environment
JVM: Java HotSpot(TM) 64-Bit Server VM
Default Encoding: Cp1251
Language: ru
Country: RU
--></g></svg>